<?xml version="1.0" encoding="utf-8"?>
<!-- Generator: Adobe Illustrator 18.1.1, SVG Export Plug-In . SVG Version: 6.00 Build 0)  -->
<!DOCTYPE svg PUBLIC "-//W3C//DTD SVG 1.1//EN" "http://www.w3.org/Graphics/SVG/1.1/DTD/svg11.dtd">
<svg version="1.1" id="map_xA0_Image_1_" xmlns="http://www.w3.org/2000/svg" xmlns:xlink="http://www.w3.org/1999/xlink" x="0px"
	 y="0px" viewBox="0 0 640 516" style="enable-background:new 0 0 640 516;" xml:space="preserve">
<path style="fill:none;stroke:#000000;stroke-width:2;stroke-linecap:round;stroke-linejoin:round;stroke-miterlimit:10;" d="
	M403.5,127c-2.6-1.4-4,0.5-5.5,2c-3.6,3.5-7.2,6.8-11.3,9.8c-2.5,1.8-5.4,1.7-7.4,3.4c-2.3-1.3-0.3-4-2.6-5.2
	c-3.3,1.3-4.9,7.1-10.6,4.2c5-7.7,12.8-13,18.7-20.2c-4.6-1.6-8.8-3.2-13.4,0c-1.6,1.1-3.6-0.3-5.5-1.3c-3.6-2-6.9-4.9-11.5-4.6
	c-4.1,0.3-8.2,1.8-12-0.9c-0.7-0.5-1.3,1.5-2.6,0.8c-2.8-2.1-2.7-6.3-5.2-9c-3,1.2-0.6,4.1-2.2,5.8c-18,2.3-36.2,1.6-54.4,1.1
	c-6-0.2-12-0.7-18-0.7c-13,0-26-0.9-39-1.3c-10.9-0.4-21.7-2.8-32.5-4.5c-11.5-1.8-22.9-3.7-34.5-5.3c-16.6-2.2-32.9-6.3-49-11
	C95.9,87.3,87,84,78,81c-0.5-0.2-1.1-0.2-2,1.6c0,1.2,4,4.2-0.5,5.7c1.7,3.8,1.7,3.8-0.4,9.8c-1,0.8-1.5-1.3-2.5-0.6L68,102
	c2.2-2.8,5.7-5.1,3.3-9.9c-4.3-2.5-9.2-4.8-13.1-8.3c-2.6,0.7-3.5,2.4-3.2,4.6c0.7,5.5-1,11,1.1,16.6c0.8,2.2,0.3,6.8-2.6,9.4
	c2.4,1.8,5.9,2.4,6.5,6l-1.5-2c-5.4,0-6.9,4.2-8.4,8c-1.8,4.3-2.9,8.9-4.1,13.5c-1.9,7.1-5.2,13.7-8.9,20.1
	c-3.5,6.1-4.9,12.6-3.3,20c1.2,5.5,0.1,11.9-3.5,16.3c-5.3,6.4-3,12.1-0.2,18.4c-2.5,3.6,0.3,8.3-2.2,12c1.4,5.2,6.1,8.9,5,14.8
	c1.3,1.3,2.7,2.7,4,4c0.9-0.7,1.3-1.9,3.2-1.4c-0.3,2.2,1.9,7,0.9,9.3c-0.7-2.5-2.9-3-5.3-3.8c-1.9,7,4.7,10.1,6.7,15.4
	c-2.9,2-3.3,5.3-2.2,7.7c1.5,3.4,2.5,7.3,4.9,10c3.8,4.2,5,8.8,4.9,14.1c-0.1,3.4,1,6.3,4.5,7.5c6.2,2,11,6.1,14.9,10.5
	c5.9-1.8,3.7,3.2,5.3,5.3c9,3.4,11.9,11.2,12.5,20.4c9,0.8,17.8,2,27.1,1.2c0.3,2.8,2.5,4.2,4.7,5.1c6.2,2.6,11.6,6.4,17.5,9.5
	c7.2,3.8,14.1,8.4,22,10.4c11.2,2.8,22.6,0.5,33.5,1.2c1.7-2,0.1-4.1,1.8-6.1c4.1,0,8.6,0.1,13.1,0c4.6-0.2,8.4,1.2,11.5,4.5
	c3.2,3.5,6.6,6.9,10.6,9.4c3.4,2.2,5.3,4.7,6,8.6c1.5,8.7,8,13.3,14.9,17.6c2.1,1.3,3.7,0.4,5.3,0.9c3-4.1,4.3-8.4,6.3-11.6
	c3.8-2.1,7.1,0,10.4-0.5c3.8-0.5,6.8,1.1,9.5,3.5c2.9,2.5,5.2,5.5,7,9c3.4,6.3,6.7,12.8,12.5,17.5c1.9,1.5,2.4,3.7,3.1,6
	c1.9,6.9,5.9,12.4,13,13.8c5,1,10.2,0.8,15,3.1c1.1,0.5,2.9,0.6,4.3-1.2c-4.3-5.2-4.7-11.8-5.5-18.1c3.5-1.3,2-4.1,1.8-5.9
	c2.3-6.1,7.1-9.9,9.9-15.1c2.5,0.1,5-0.3,7,0.4c7.7-2.7,10.1-8.5,10-15.6c2.3,1.2,4,0.9,6.1-0.6c2.1-1.5,3.9-3.8,6.9-3.6
	c6,0.3,12.1-0.9,17.8,1.1c2.4-0.6,2.1-3.6,4.2-4.1c3.4-0.1,6.5,1.4,8.3,3.7c3.2,4,6.6,4,10.1,2.4c3.1,0.6,3.6,4.2,6.6,3.9
	c1.4-2.5-0.6-5.6,1.7-8.4c2,2.6,6,0.1,7.8,3.4c1.5-2.1-4.8-4.6-4.4-6.9c-0.1-1.6,2.5-2.1,2.5-4.5c-0.8-0.5-3,0.4-4.5-0.1
	c2.5-5.3,7.4-7.3,12.5-8.3c2.4-0.4,5.1-3.5,7-4.7c-1.2,2.8,1.7,4,2.2,5.9c3.4-0.9,5.7-3.1,8.7-4.9c3,2.1,5.6-1.1,8.7-1.5
	c4.5,3.7,10.8,4.1,15.5,7.9c0.6,0.5,2.2,0.5,3.4-0.4c2.4-1.7,5.6-2.1,7.4-4.6c2.4-3.2,5.3-2.2,8-0.9c3.4,1.6,5.2,5.6,8.6,6.8
	c6.3,2.3,8,6.6,7.5,12.7c-0.2,3.3,0.7,6.3,3.6,7.1c2.5,2.4,0.1,5.2,2.3,7.4c4.6,4.5,10.6,7.6,12.6,14.4c0.2,0.8,1.2,1.7,2,2
	c5.5,1.6,8.1,5.7,9.5,10.7c6.5-1.9,9.9-3.8,9.8-6.6c-0.1-9.2,2-18.9-5.8-26.6c-2.5-2.5-4.8-5.7-5.6-9.4c-1-5.1-4.6-8.5-7.4-12.6
	c-6.3-9.3-15.1-17.9-12.1-30.9c1.3-5.7,0.5-12.3,6.1-16.1c-0.4-1.4-1.5-2.1-1.2-3.2c7.6-2.3,13.1-7.2,14.8-14.7c1.1-5,3-8.4,7.2-11
	c2.6-1.6,6-3.1,6.9-6c1.4-4.8,4.9-6.9,8.7-8.9c2.2-1.1,2.6-3.2,3.7-5.1c-1.2-0.7-2.2-1.3-3.2-1.8c-0.3-1.6,3.7-5-1.4-4.8
	c0.8-0.1,1.5-0.4,2.3-0.4c5.2-0.3,6.7-2.8,5-7.9c-2.4,0.3-4.6-3.9-9.5,0.5c2.1-2.2,3.3-5.3,6.9-6.3c-1.5-3-2.8-5.7-4.1-8.2
	c-1.8,0-3.3,0.2-4.6-0.5c-0.6-6.3-2.2-12.2-6.7-17.1c1-2.4,1.4-5.5,0.3-7.3c-2.8-4.5-1.6-8.5,0.2-12.6c-2.2,12.9,2.3,12.9,2.7,17.5
	c4.8-0.9,6.7,2.8,5.6,10c0,8.3,4.4,4.4,4.1-5.5c2.3-3.4-0.4-7.7,2.5-11.1c-4.1-3.7-7.4-7.6-9.5-12.4c5.7,6.8,4.9-1.2,8.9,3.5
	c3.7-5.5,4.3-11.7,4.1-18c-0.1-2.3-2.8-2.2-4-3.5c0.2-1.4-0.6-3,1-4c0,0,0.5,1.2,2.6,1.2s4.4-2.1,4.4-2.1c5.7-3.1,16-7.8,14.4-12.1
	c0,0-0.5-2.5-3.4,0s-10.6,8.3-12.7,9.3s-4.4,2.2-4.4,2.2c6.1-6.9,13.9-11.8,21.3-17.1c1.4-1-0.2-2.8,1.1-3.9c3.9,0.8,6-4.2,9.8-2.4
	c1.8-2.7,2.2-5,1.7-7.6l-2,4c-5.2,1.3-5.8-3.2-8.6-4.9c-5-6.9,0.7-14.5-2.4-21.5c4.1-0.5,4.8-5.5,8.5-6.2c-0.3-3.4-1.8-6.6,0.2-8.7
	c3.4-0.5,6.7,1.1,8.1-2.2c1.8-4.1,5.3-6.4,8.3-9.2c-0.7-2.4-1.3-4.5-2.7-6.3c-1.3-0.2-2.7,1.5-4.2-0.2c-0.6-1.1,0-3.3-1.8-3.7
	c-5.5-1.2-5.9-5.9-7.6-10c-1.5-3.8-2.4-8.8-7.2-9.5c-4.1-0.1-2.9,3.6-4.7,5.1c-3.9-1.1-7.9-4.4-12.3,0.3c1.2,9.5,2.5,19.3,3.8,29.7
	c-2.1,2.3-5.7,4.2-7.1,8.3c-0.5,1.5-2.4,2.2-4.4,2.6c-8.8,2.1-17.2,5.5-25.5,8.9c-3.8,1.6-7.5,4-8.3,8c-0.6,3.3-2.2,5.8-3.7,8.5
	c2.7,1.8,0.5,5.8,3.9,7.2c-5.2,4-9.6,8.8-16,9.1c-4.7,0.2-8.2,2.1-11.6,5.1c0.1,2.1,2.8,2.9,2.6,5.1c-0.2,0.5-0.3,1-0.5,1.5
	c-6.1,10.2-16.4,16-25.1,23.4c-5,4.3-11,4.3-17.2,1.3c1.1-2,2.6-3.4,2.3-5.7c-0.4-3.2,0.4-6.3,3-8.5c1.6-1.4,1.4-3.4,0.9-4.5
	c-2.8-5-3.5-11.5-9.4-14.6c-3.6,1.3-3.8,5.4-6.1,7.6c-1.4-0.4-2.1-1.1-2.3-1.9c1.1-3.3,3.9-5.8,3.8-9.2c-0.1-3.9-2.2-7.4-3.6-10.9
	c-1-2.6-4.8-2.4-7.3-3.6c-2.7-1.3-5.2,1.2-7.3-1l-0.8-0.1l-0.4,0.2c-1,1.4-4.1,2.2,0.6,4.1c-3.1,2.3-4,4.1-4.9,7
	c-0.8,7.9,0.5-0.7-2.2-0.2c-4.6,2.6-3.1,7.2-4.2,11.1c-1.7,6.5,0.5,11.3,3.6,16.6c4.3,7.3,0.4,19.4-7,23.5c-2.9-0.7-4.3-3-5.4-5.6
	c-2.6-5.9-4.5-12.2-3.8-18.5c0.6-4.9,1-9.7,0.6-14.5c-0.3-4.7-0.1-9.4-0.6-15.2c3.1-6.5,12.5-6.3,16.9-12.6c2.6,0.9,3.5,2.6,6,2.8
	c2.4-1.8,5.9-1.5,7.4-4.2c-0.7-2.6-4.2-3.4-4.2-6.7c-3.6,1.8-6.7,2.8-8.3-1.6c-5.5,0.9-9.9,3.6-14.2,6.9c-2.5,1.9-6.1,1.9-8.3-0.5
	c-2.5-2.6-5-2.9-8.1-1.9c-0.9,0.3-1.5-0.4-2.1-1.2c0.9-2.5,3.3-4.4,3.7-7.3c0.1-0.7,1.5-0.6,2.4-0.5"/>
</svg>
